REM DIRINDEX 1\2,1\3,1\4,1\5
REM DIRNAME folder01,folder02,folder03,folder04,folder05
TITLE ""
FILE "1Q_t_1367-1376.mp3" MP3
  TRACK 01 AUDIO
    TITLE "3:cjc004_5006"
    INDEX 01 00:00:00
  TRACK 02 AUDIO
    TITLE "0:"
    INDEX 01 00:01:13
  TRACK 03 AUDIO
    TITLE "4:cjc004_5007"
    INDEX 01 00:01:42
  TRACK 04 AUDIO
    TITLE "0:"
    INDEX 01 00:03:04
  TRACK 05 AUDIO
    TITLE "5:cjc004_5008"
    INDEX 01 00:03:29
  TRACK 06 AUDIO
    TITLE "0:"
    INDEX 01 00:08:34
  TRACK 07 AUDIO
    TITLE "3:cjc004_5009"
    INDEX 01 00:09:12
  TRACK 08 AUDIO
    TITLE "0:"
    INDEX 01 00:10:25
  TRACK 09 AUDIO
    TITLE "4:cjc004_5010"
    INDEX 01 00:10:53
  TRACK 10 AUDIO
    TITLE "0:"
    INDEX 01 00:11:66
  TRACK 11 AUDIO
    TITLE "5:cjc004_5011"
    INDEX 01 00:12:09
  TRACK 12 AUDIO
    TITLE "0:"
    INDEX 01 00:16:28
  TRACK 13 AUDIO
    TITLE "3:cjc004_5012"
    INDEX 01 00:17:06
  TRACK 14 AUDIO
    TITLE "0:"
    INDEX 01 00:18:17
  TRACK 15 AUDIO
    TITLE "4:cjc004_5013"
    INDEX 01 00:18:44
  TRACK 16 AUDIO
    TITLE "0:"
    INDEX 01 00:20:06
  TRACK 17 AUDIO
    TITLE "5:cjc004_5014"
    INDEX 01 00:20:34
  TRACK 18 AUDIO
    TITLE "0:"
    INDEX 01 00:24:31
  TRACK 19 AUDIO
    TITLE "3:cjc004_5015"
    INDEX 01 00:25:11
  TRACK 20 AUDIO
    TITLE "0:"
    INDEX 01 00:26:48
  TRACK 21 AUDIO
    TITLE "4:cjc004_5016"
    INDEX 01 00:27:02
  TRACK 22 AUDIO
    TITLE "0:"
    INDEX 01 00:28:29
  TRACK 23 AUDIO
    TITLE "5:cjc004_5017"
    INDEX 01 00:28:53
  TRACK 24 AUDIO
    TITLE "0:"
    INDEX 01 00:32:31
  TRACK 25 AUDIO
    TITLE "3:cjc004_5018"
    INDEX 01 00:33:13
  TRACK 26 AUDIO
    TITLE "0:"
    INDEX 01 00:34:30
  TRACK 27 AUDIO
    TITLE "4:cjc004_5019"
    INDEX 01 00:34:57
  TRACK 28 AUDIO
    TITLE "0:"
    INDEX 01 00:36:11
  TRACK 29 AUDIO
    TITLE "5:cjc004_5020"
    INDEX 01 00:36:36
  TRACK 30 AUDIO
    TITLE "0:"
    INDEX 01 00:40:11
  TRACK 31 AUDIO
    TITLE "3:cjc004_5021"
    INDEX 01 00:40:66
  TRACK 32 AUDIO
    TITLE "0:"
    INDEX 01 00:42:14
  TRACK 33 AUDIO
    TITLE "4:cjc004_5022"
    INDEX 01 00:42:41
  TRACK 34 AUDIO
    TITLE "0:"
    INDEX 01 00:43:60
  TRACK 35 AUDIO
    TITLE "5:cjc004_5023"
    INDEX 01 00:44:09
  TRACK 36 AUDIO
    TITLE "0:"
    INDEX 01 00:48:14
  TRACK 37 AUDIO
    TITLE "3:cjc004_5024"
    INDEX 01 00:48:67
  TRACK 38 AUDIO
    TITLE "0:"
    INDEX 01 00:50:11
  TRACK 39 AUDIO
    TITLE "4:cjc004_5025"
    INDEX 01 00:50:37
  TRACK 40 AUDIO
    TITLE "0:"
    INDEX 01 00:51:38
  TRACK 41 AUDIO
    TITLE "5:cjc004_5026"
    INDEX 01 00:51:60
  TRACK 42 AUDIO
    TITLE "0:"
    INDEX 01 00:56:10
  TRACK 43 AUDIO
    TITLE "3:cjc004_5027"
    INDEX 01 00:56:65
  TRACK 44 AUDIO
    TITLE "0:"
    INDEX 01 00:57:74
  TRACK 45 AUDIO
    TITLE "4:cjc004_5028"
    INDEX 01 00:58:34
  TRACK 46 AUDIO
    TITLE "0:"
    INDEX 01 01:00:08
  TRACK 47 AUDIO
    TITLE "5:cjc004_5029"
    INDEX 01 01:00:35
  TRACK 48 AUDIO
    TITLE "0:"
    INDEX 01 01:04:72
  TRACK 49 AUDIO
    TITLE "3:cjc004_5030"
    INDEX 01 01:05:46
  TRACK 50 AUDIO
    TITLE "0:"
    INDEX 01 01:06:53
  TRACK 51 AUDIO
    TITLE "4:cjc004_5031"
    INDEX 01 01:07:10
  TRACK 52 AUDIO
    TITLE "0:"
    INDEX 01 01:09:10
  TRACK 53 AUDIO
    TITLE "5:cjc004_5032"
    INDEX 01 01:09:36
  TRACK 54 AUDIO
    TITLE "0:"
    INDEX 01 01:14:35
  TRACK 55 AUDIO
    TITLE "3:cjc004_5033"
    INDEX 01 01:15:11
  TRACK 56 AUDIO
    TITLE "0:"
    INDEX 01 01:16:32
  TRACK 57 AUDIO
    TITLE "4:cjc004_5034"
    INDEX 01 01:16:61
  TRACK 58 AUDIO
    TITLE "0:"
    INDEX 01 01:18:00
  TRACK 59 AUDIO
    TITLE "5:cjc004_5035"
    INDEX 01 01:18:31
  TRACK 60 AUDIO
    TITLE "0:"
    INDEX 01 01:23:22
